# xmcd
#
# Track frame offsets:
#	150
#	1352
#	5441
#	20431
#	34176
#	64721
#	88659
#	119881
#	143674
#	163651
#	201844
#	222865
#
# Disc length: 3166 seconds
#
# Revision: 1
# Processed by: cddbd v1.4PL0 Copyright (c) Steve Scherf et al.
# Submitted via: EasyCDDAExtractor 6.0.0.1
#
DISCID=a20c5c0c
DTITLE=Puti Limo Jurai group - Minangkabau traditional arts
DYEAR=2003
DGENRE=Folklore
TTITLE0=Bukittinggi kota wisata
TTITLE1=Bararak
TTITLE2=Tari Pasambahan
TTITLE3=Saluang jo Dendang
TTITLE4=Silek
TTITLE5=Tari indang
TTITLE6=Saluang jo Dendang
TTITLE7=Tari piriang
TTITLE8=Salauang jo Dendang
TTITLE9=Ngarai Sianok
TTITLE10=Bonus 1
TTITLE11=Bonus 2
EXTD=
EXTT0=
EXTT1=
EXTT2=
EXTT3=
EXTT4=
EXTT5=
EXTT6=
EXTT7=
EXTT8=
EXTT9=
EXTT10=
EXTT11=
PLAYORDER=
